#!OML:ASF H:\Dans Jumps\Project 1\Capture day 1\Session 1\subject.ASF
:FULLY-SPECIFIED
:DEGREES
438
root 1.10248 17.6452 13.412 6.19297 6.02702 -2.95002
lowerback -5.48081 -0.089883 1.54165
upperback -0.608638 -0.24879 1.42976
thorax 2.44621 -0.114472 0.586654
lowerneck -14.5611 -1.04305 -2.70615
upperneck 15.5327 -1.17212 1.94819
head 7.18717 -0.542235 0.957197
rclavicle -1.09704e-014 -2.88238e-015
rhumerus -24.5794 -15.564 -83.9694
rradius 22.4044
rwrist 43.4507
rhand -22.9154 -26.0279
rfingers 7.12502
rthumb 3.52482 -55.9785
lclavicle -1.09704e-014 -2.88238e-015
lhumerus -26.6781 -8.1347 93.1191
lradius 24.9555
lwrist 9.25824
lhand -21.8382 -6.13465
lfingers 7.12502
lthumb 4.56497 23.7962
rfemur -10.4483 -4.44097 22.2356
rtibia 19.6972
rfoot -14.8482 -0.0636856
rtoes 15.4395
lfemur -7.33528 6.86254 -16.1529
ltibia 17.3291
lfoot -12.5983 6.25286
ltoes -9.05449
439
root 1.10042 17.6453 13.4114 6.19286 6.01686 -2.94758
lowerback -5.48556 -0.0902013 1.54062
upperback -0.606085 -0.249496 1.43606
thorax 2.45153 -0.114831 0.593655
lowerneck -14.533 -1.03595 -2.71823
upperneck 15.5604 -1.16245 1.95737
head 7.19119 -0.537653 0.96332
rclavicle 1.36292e-014 -6.95746e-015
rhumerus -24.6116 -15.7425 -83.8741
rradius 22.3132
rwrist 43.62
rhand -22.8909 -26.0382
rfingers 7.12502
rthumb 3.54844 -55.9884
lclavicle 1.36292e-014 -6.95746e-015
lhumerus -26.472 -8.24921 93.1386
lradius 24.7806
lwrist 9.11906
lhand -21.8603 -6.1555
lfingers 7.12502
lthumb 4.54366 23.7758
rfemur -10.4458 -4.46502 22.2397
rtibia 19.6858
rfoot -14.8482 -0.0331325
rtoes 15.4684
lfemur -7.31445 6.87739 -16.148
ltibia 17.2914
lfoot -12.5979 6.24152
ltoes -9.01791
440
root 1.0985 17.6454 13.4105 6.19329 6.00493 -2.94551
lowerback -5.48915 -0.091071 1.54073
upperback -0.603756 -0.250989 1.44308
thorax 2.45597 -0.115579 0.600701
lowerneck -14.5064 -1.03003 -2.73629
upperneck 15.5959 -1.15437 1.97354
head 7.1981 -0.533554 0.972563
rclavicle 3.54706e-015 -1.78906e-015
rhumerus -24.6458 -15.9153 -83.779
rradius 22.2242
rwrist 43.7789
rhand -22.8723 -26.0462
rfingers 7.12502
rthumb 3.56642 -55.9961
lclavicle 3.54706e-015 -1.78906e-015
lhumerus -26.2532 -8.33438 93.1448
lradius 24.5656
lwrist 8.94509
lhand -21.8694 -6.17439
lfingers 7.12502
lthumb 4.53491 23.7571
rfemur -10.4469 -4.49274 22.2438
rtibia 19.6772
rfoot -14.8475 0.00168564
rtoes 15.4941
lfemur -7.29403 6.89192 -16.1436
ltibia 17.2521
lfoot -12.5978 6.22932
ltoes -8.97079
441
root 1.09661 17.6457 13.4092 6.19617 5.99058 -2.93766
lowerback -5.49457 -0.0957543 1.53221
upperback -0.601364 -0.25717 1.45305
thorax 2.46156 -0.118757 0.615276
lowerneck -14.4915 -1.02112 -2.75353
upperneck 15.6455 -1.14162 1.98626
head 7.21152 -0.527454 0.981047
rclavicle -2.09966e-015 -7.95139e-016
rhumerus -24.6775 -16.0887 -83.6727
rradius 22.1214
rwrist 43.9499
rhand -22.8646 -25.9928
rfingers 7.12502
rthumb 3.57384 -55.9426
lclavicle -2.09966e-015 -7.95139e-016
lhumerus -26.0214 -8.35424 93.1354
lradius 24.3103
lwrist 8.72066
lhand -21.8612 -6.172
lfingers 7.12502
lthumb 4.54282 23.7593
rfemur -10.4537 -4.52085 22.2415
rtibia 19.6732
rfoot -14.8477 0.0386375
rtoes 15.5166
lfemur -7.27499 6.91151 -16.1458
ltibia 17.21
lfoot -12.5977 6.21162
ltoes -8.91133
442
root 1.09468 17.646 13.4075 6.19969 5.97375 -2.92926
lowerback -5.50226 -0.100589 1.52037
upperback -0.590731 -0.263614 1.4637
thorax 2.47692 -0.122046 0.632387
lowerneck -14.5004 -1.01375 -2.76937
upperneck 15.7006 -1.1308 1.99942
head 7.23092 -0.52205 0.989214
rclavicle 7.85199e-015 8.74653e-015
rhumerus -24.6896 -16.2562 -83.5722
rradius 22.0139
rwrist 44.1131
rhand -22.8662 -25.9346
rfingers 7.12502
rthumb 3.57226 -55.8845
lclavicle 7.85199e-015 8.74653e-015
lhumerus -25.7704 -8.31839 93.105
lradius 24.0331
lwrist 8.45009
lhand -21.8457 -6.15192
lfingers 7.12502
lthumb 4.55773 23.779
rfemur -10.4656 -4.54177 22.2388
rtibia 19.6744
rfoot -14.8482 0.0711708
rtoes 15.5357
lfemur -7.25757 6.93396 -16.1488
ltibia 17.1661
lfoot -12.5947 6.19258
ltoes -8.86006
443
root 1.09272 17.6462 13.4054 6.2037 5.95569 -2.91561
lowerback -5.50941 -0.105777 1.50177
upperback -0.579201 -0.270098 1.47331
thorax 2.49293 -0.12542 0.652219
lowerneck -14.5094 -1.00798 -2.77713
upperneck 15.7507 -1.1226 2.0054
head 7.24871 -0.518073 0.99343
rclavicle -3.72721e-015 2.8128e-014
rhumerus -24.7045 -16.3917 -83.4787
rradius 21.9179
rwrist 44.2458
rhand -22.8585 -25.8939
rfingers 7.12502
rthumb 3.57974 -55.8436
lclavicle -3.72721e-015 2.8128e-014
lhumerus -25.5174 -8.21706 93.0556
lradius 23.733
lwrist 8.12381
lhand -21.8303 -6.14143
lfingers 7.12502
lthumb 4.57262 23.7892
rfemur -10.4809 -4.55558 22.2301
rtibia 19.681
rfoot -14.8504 0.100405
rtoes 15.5664
lfemur -7.24151 6.95923 -16.1577
ltibia 17.1215
lfoot -12.587 6.17274
ltoes -8.82303
444
root 1.09074 17.6464 13.4029 6.20855 5.93857 -2.89834
lowerback -5.51603 -0.110321 1.4802
upperback -0.566447 -0.275485 1.48031
thorax 2.50991 -0.128266 0.671114
lowerneck -14.5161 -1.00188 -2.7817
upperneck 15.7917 -1.11506 2.01383
head 7.26314 -0.513991 0.997835
rclavicle 1.00076e-014 2.72335e-014
rhumerus -24.7229 -16.5001 -83.3943
rradius 21.8365
rwrist 44.3491
rhand -22.8467 -25.8795
rfingers 7.12502
rthumb 3.59115 -55.829
lclavicle 1.00076e-014 2.72335e-014
lhumerus -25.2582 -8.07877 92.9922
lradius 23.4076
lwrist 7.76657
lhand -21.8219 -6.13355
lfingers 7.12502
lthumb 4.58073 23.7969
rfemur -10.4999 -4.5643 22.2173
rtibia 19.6911
rfoot -14.8517 0.124546
rtoes 15.6003
lfemur -7.22934 6.98345 -16.1711
ltibia 17.0788
lfoot -12.5753 6.154
ltoes -8.80356
445
root 1.0887 17.6465 13.3998 6.21135 5.92348 -2.87904
lowerback -5.52023 -0.1133 1.45665
upperback -0.55082 -0.278594 1.4846
thorax 2.52849 -0.129982 0.688503
lowerneck -14.5156 -0.999391 -2.78569
upperneck 15.8183 -1.11356 2.02716
head 7.27175 -0.512319 1.00309
rclavicle -2.08103e-015 1.40143e-014
rhumerus -24.7419 -16.5942 -83.3194
rradius 21.7711
rwrist 44.4295
rhand -22.8274 -25.9038
rfingers 7.12502
rthumb 3.60974 -55.853
lclavicle -2.08103e-015 1.40143e-014
lhumerus -24.9905 -7.91613 92.9178
lradius 23.0532
lwrist 7.38173
lhand -21.8328 -6.16847
lfingers 7.12502
lthumb 4.57025 23.7622
rfemur -10.5199 -4.56442 22.2022
rtibia 19.7042
rfoot -14.8514 0.140035
rtoes 15.6297
lfemur -7.21857 7.00384 -16.1864
ltibia 17.0386
lfoot -12.5605 6.1362
ltoes -8.79066
446
root 1.08667 17.6466 13.3963 6.21074 5.91285 -2.86066
lowerback -5.51908 -0.116089 1.4353
upperback -0.535307 -0.281403 1.48745
thorax 2.54395 -0.131538 0.703213
lowerneck -14.4839 -1.00361 -2.79145
upperneck 15.8163 -1.12157 2.04174
head 7.2659 -0.515313 1.00801
rclavicle 7.86442e-015 1.55052e-014
rhumerus -24.7667 -16.6826 -83.2488
rradius 21.7182
rwrist 44.4992
rhand -22.7984 -25.9595
rfingers 7.12502
rthumb 3.63782 -55.9082
lclavicle 7.86442e-015 1.55052e-014
lhumerus -24.7192 -7.74525 92.839
lradius 22.6683
lwrist 6.98601
lhand -21.865 -6.23234
lfingers 7.12502
lthumb 4.53911 23.699
rfemur -10.5383 -4.56002 22.1878
rtibia 19.719
rfoot -14.851 0.149148
rtoes 15.6711
lfemur -7.20842 7.015 -16.2005
ltibia 17.0021
lfoot -12.5449 6.12142
ltoes -8.77514
447
root 1.0847 17.6467 13.3924 6.20727 5.90778 -2.84448
lowerback -5.516 -0.120131 1.41633
upperback -0.517539 -0.286053 1.49139
thorax 2.56064 -0.13399 0.717567
lowerneck -14.4342 -1.01276 -2.8068
upperneck 15.7957 -1.13603 2.06477
head 7.25108 -0.521256 1.01659
rclavicle -1.77477e-014 -2.10712e-014
rhumerus -24.789 -16.7892 -83.1738
rradius 21.6661
rwrist 44.5821
rhand -22.7652 -26.0109
rfingers 7.12502
rthumb 3.66982 -55.959
lclavicle -1.77477e-014 -2.10712e-014
lhumerus -24.437 -7.56536 92.7577
lradius 22.2537
lwrist 6.58309
lhand -21.9123 -6.31591
lfingers 7.12502
lthumb 4.4935 23.6164
rfemur -10.5552 -4.55545 22.1758
rtibia 19.7343
rfoot -14.8503 0.15216
rtoes 15.7012
lfemur -7.19912 7.01677 -16.212
ltibia 16.9685
lfoot -12.5285 6.10909
ltoes -8.75126
448
root 1.0828 17.6469 13.3881 6.20299 5.90845 -2.83033
lowerback -5.51353 -0.126065 1.3989
upperback -0.494882 -0.293456 1.49593
thorax 2.58273 -0.137779 0.731468
lowerneck -14.3836 -1.0264 -2.83938
upperneck 15.7664 -1.15677 2.10969
head 7.2337 -0.529227 1.03446
rclavicle -4.06887e-015 -5.56597e-015
rhumerus -24.8012 -16.8991 -83.1043
rradius 21.6193
rwrist 44.6629
rhand -22.7251 -26.0675
rfingers 7.12502
rthumb 3.70854 -56.015
lclavicle -4.06887e-015 -5.56597e-015
lhumerus -24.1391 -7.37325 92.6705
lradius 21.8199
lwrist 6.17497
lhand -21.9603 -6.37488
lfingers 7.12502
lthumb 4.44707 23.5584
rfemur -10.5722 -4.54923 22.1663
rtibia 19.7485
rfoot -14.8475 0.145431
rtoes 15.7154
lfemur -7.19342 7.0074 -16.2216
ltibia 16.9386
lfoot -12.512 6.10104
ltoes -8.72541
